<mxfile host="app.diagrams.net" modified="2020-07-12T21:06:18.087Z" agent="5.0 (X11)" etag="KhES5lyrydb-hKwn5f6P" version="13.1.1" type="github">
  <diagram id="kSFpAXY7mbcNbA7Py6dM" name="Page-1">
    <mxGraphModel dx="1355" dy="914" grid="1" gridSize="5" guides="1" tooltips="1" connect="1" arrows="1" fold="1" page="1" pageScale="1" pageWidth="1400" pageHeight="850" math="0" shadow="0">
      <root>
        <mxCell id="0" />
        <mxCell id="1" parent="0" />
        <mxCell id="c9UWCFrcOHikl9ARo72L-1" value="" style="rounded=0;whiteSpace=wrap;html=1;opacity=50;fillColor=#808080;" vertex="1" parent="1">
          <mxGeometry x="40" y="80" width="15" height="600" as="geometry" />
        </mxCell>
        <mxCell id="c9UWCFrcOHikl9ARo72L-2" value="" style="rounded=0;whiteSpace=wrap;html=1;opacity=50;fillColor=#808080;" vertex="1" parent="1">
          <mxGeometry x="230" y="350" width="15" height="330" as="geometry" />
        </mxCell>
        <mxCell id="c9UWCFrcOHikl9ARo72L-3" value="" style="rounded=0;whiteSpace=wrap;html=1;opacity=50;fillColor=#808080;" vertex="1" parent="1">
          <mxGeometry x="55" y="80" width="15" height="35" as="geometry" />
        </mxCell>
        <mxCell id="c9UWCFrcOHikl9ARo72L-4" value="" style="rounded=0;whiteSpace=wrap;html=1;opacity=50;fillColor=#808080;" vertex="1" parent="1">
          <mxGeometry x="245" y="350" width="15" height="35" as="geometry" />
        </mxCell>
        <mxCell id="c9UWCFrcOHikl9ARo72L-5" value="" style="rounded=0;whiteSpace=wrap;html=1;opacity=50;fillColor=#808080;" vertex="1" parent="1">
          <mxGeometry x="55" y="350" width="15" height="35" as="geometry" />
        </mxCell>
        <mxCell id="c9UWCFrcOHikl9ARo72L-6" value="" style="rounded=0;whiteSpace=wrap;html=1;opacity=50;fillColor=#808080;" vertex="1" parent="1">
          <mxGeometry x="55" y="610" width="15" height="35" as="geometry" />
        </mxCell>
        <mxCell id="c9UWCFrcOHikl9ARo72L-7" value="" style="rounded=0;whiteSpace=wrap;html=1;opacity=50;fillColor=#808080;" vertex="1" parent="1">
          <mxGeometry x="215" y="610" width="15" height="35" as="geometry" />
        </mxCell>
        <mxCell id="c9UWCFrcOHikl9ARo72L-8" value="" style="rounded=0;whiteSpace=wrap;html=1;opacity=50;fillColor=#808080;" vertex="1" parent="1">
          <mxGeometry x="40" y="350" width="220" height="35" as="geometry" />
        </mxCell>
        <mxCell id="c9UWCFrcOHikl9ARo72L-9" value="" style="rounded=0;whiteSpace=wrap;html=1;opacity=50;fillColor=#808080;" vertex="1" parent="1">
          <mxGeometry x="55" y="610" width="175" height="35" as="geometry" />
        </mxCell>
        <mxCell id="c9UWCFrcOHikl9ARo72L-10" value="" style="rounded=0;whiteSpace=wrap;html=1;opacity=50;fillColor=#CCCCCC;" vertex="1" parent="1">
          <mxGeometry x="40" y="70" width="55" height="10" as="geometry" />
        </mxCell>
        <mxCell id="c9UWCFrcOHikl9ARo72L-11" value="" style="rounded=0;whiteSpace=wrap;html=1;opacity=50;fillColor=#CCCCCC;" vertex="1" parent="1">
          <mxGeometry x="55" y="340" width="55" height="10" as="geometry" />
        </mxCell>
        <mxCell id="c9UWCFrcOHikl9ARo72L-12" value="" style="rounded=0;whiteSpace=wrap;html=1;opacity=50;fillColor=#CCCCCC;" vertex="1" parent="1">
          <mxGeometry x="110" y="340" width="55" height="10" as="geometry" />
        </mxCell>
        <mxCell id="c9UWCFrcOHikl9ARo72L-13" value="" style="rounded=0;whiteSpace=wrap;html=1;opacity=50;fillColor=#CCCCCC;" vertex="1" parent="1">
          <mxGeometry x="165" y="340" width="55" height="10" as="geometry" />
        </mxCell>
        <mxCell id="c9UWCFrcOHikl9ARo72L-14" value="" style="rounded=0;whiteSpace=wrap;html=1;opacity=50;fillColor=#CCCCCC;" vertex="1" parent="1">
          <mxGeometry x="220" y="340" width="55" height="10" as="geometry" />
        </mxCell>
        <mxCell id="c9UWCFrcOHikl9ARo72L-15" value="" style="rounded=0;whiteSpace=wrap;html=1;opacity=50;fillColor=#CCCCCC;" vertex="1" parent="1">
          <mxGeometry x="55" y="600" width="55" height="10" as="geometry" />
        </mxCell>
        <mxCell id="c9UWCFrcOHikl9ARo72L-16" value="" style="rounded=0;whiteSpace=wrap;html=1;opacity=50;fillColor=#CCCCCC;" vertex="1" parent="1">
          <mxGeometry x="115" y="600" width="55" height="10" as="geometry" />
        </mxCell>
        <mxCell id="c9UWCFrcOHikl9ARo72L-17" value="" style="rounded=0;whiteSpace=wrap;html=1;opacity=50;fillColor=#CCCCCC;" vertex="1" parent="1">
          <mxGeometry x="175" y="600" width="55" height="10" as="geometry" />
        </mxCell>
        <mxCell id="c9UWCFrcOHikl9ARo72L-20" value="" style="rounded=0;whiteSpace=wrap;html=1;opacity=50;fillColor=#808080;" vertex="1" parent="1">
          <mxGeometry x="340" y="80" width="35" height="15" as="geometry" />
        </mxCell>
        <mxCell id="c9UWCFrcOHikl9ARo72L-21" value="" style="rounded=0;whiteSpace=wrap;html=1;opacity=50;fillColor=#808080;" vertex="1" parent="1">
          <mxGeometry x="340" y="95" width="450" height="15" as="geometry" />
        </mxCell>
        <mxCell id="c9UWCFrcOHikl9ARo72L-22" value="" style="rounded=0;whiteSpace=wrap;html=1;opacity=50;fillColor=#808080;" vertex="1" parent="1">
          <mxGeometry x="755" y="80" width="35" height="15" as="geometry" />
        </mxCell>
        <mxCell id="c9UWCFrcOHikl9ARo72L-24" value="" style="rounded=0;whiteSpace=wrap;html=1;opacity=50;fillColor=#808080;" vertex="1" parent="1">
          <mxGeometry x="340" y="180" width="35" height="15" as="geometry" />
        </mxCell>
        <mxCell id="c9UWCFrcOHikl9ARo72L-25" value="" style="rounded=0;whiteSpace=wrap;html=1;opacity=50;fillColor=#808080;" vertex="1" parent="1">
          <mxGeometry x="340" y="195" width="450" height="15" as="geometry" />
        </mxCell>
        <mxCell id="c9UWCFrcOHikl9ARo72L-26" value="" style="rounded=0;whiteSpace=wrap;html=1;opacity=50;fillColor=#808080;" vertex="1" parent="1">
          <mxGeometry x="755" y="180" width="35" height="15" as="geometry" />
        </mxCell>
        <mxCell id="c9UWCFrcOHikl9ARo72L-28" value="" style="rounded=0;whiteSpace=wrap;html=1;opacity=50;fillColor=#808080;" vertex="1" parent="1">
          <mxGeometry x="480" y="210" width="15" height="175" as="geometry" />
        </mxCell>
        <mxCell id="c9UWCFrcOHikl9ARo72L-29" value="" style="rounded=0;whiteSpace=wrap;html=1;opacity=50;fillColor=#808080;" vertex="1" parent="1">
          <mxGeometry x="340" y="370" width="35" height="15" as="geometry" />
        </mxCell>
        <mxCell id="c9UWCFrcOHikl9ARo72L-30" value="" style="rounded=0;whiteSpace=wrap;html=1;opacity=50;fillColor=#808080;" vertex="1" parent="1">
          <mxGeometry x="340" y="385" width="450" height="15" as="geometry" />
        </mxCell>
        <mxCell id="c9UWCFrcOHikl9ARo72L-31" value="" style="rounded=0;whiteSpace=wrap;html=1;opacity=50;fillColor=#808080;" vertex="1" parent="1">
          <mxGeometry x="755" y="370" width="35" height="15" as="geometry" />
        </mxCell>
        <mxCell id="c9UWCFrcOHikl9ARo72L-32" value="" style="rounded=0;whiteSpace=wrap;html=1;opacity=50;fillColor=#808080;" vertex="1" parent="1">
          <mxGeometry x="325" y="180" width="15" height="220" as="geometry" />
        </mxCell>
        <mxCell id="c9UWCFrcOHikl9ARo72L-33" value="" style="rounded=0;whiteSpace=wrap;html=1;opacity=50;fillColor=#808080;" vertex="1" parent="1">
          <mxGeometry x="790" y="180" width="15" height="220" as="geometry" />
        </mxCell>
        <mxCell id="c9UWCFrcOHikl9ARo72L-34" value="" style="rounded=0;whiteSpace=wrap;html=1;opacity=50;fillColor=#808080;" vertex="1" parent="1">
          <mxGeometry x="635" y="210" width="15" height="175" as="geometry" />
        </mxCell>
        <mxCell id="c9UWCFrcOHikl9ARo72L-35" value="" style="rounded=0;whiteSpace=wrap;html=1;opacity=50;fillColor=#808080;" vertex="1" parent="1">
          <mxGeometry x="340" y="470" width="35" height="15" as="geometry" />
        </mxCell>
        <mxCell id="c9UWCFrcOHikl9ARo72L-36" value="" style="rounded=0;whiteSpace=wrap;html=1;opacity=50;fillColor=#808080;" vertex="1" parent="1">
          <mxGeometry x="355" y="485" width="420" height="15" as="geometry" />
        </mxCell>
        <mxCell id="c9UWCFrcOHikl9ARo72L-37" value="" style="rounded=0;whiteSpace=wrap;html=1;opacity=50;fillColor=#808080;" vertex="1" parent="1">
          <mxGeometry x="755" y="470" width="35" height="15" as="geometry" />
        </mxCell>
        <mxCell id="c9UWCFrcOHikl9ARo72L-39" value="" style="rounded=0;whiteSpace=wrap;html=1;opacity=50;fillColor=#808080;" vertex="1" parent="1">
          <mxGeometry x="485" y="500" width="15" height="145" as="geometry" />
        </mxCell>
        <mxCell id="c9UWCFrcOHikl9ARo72L-40" value="" style="rounded=0;whiteSpace=wrap;html=1;opacity=50;fillColor=#808080;" vertex="1" parent="1">
          <mxGeometry x="340" y="660" width="35" height="15" as="geometry" />
        </mxCell>
        <mxCell id="c9UWCFrcOHikl9ARo72L-41" value="" style="rounded=0;whiteSpace=wrap;html=1;opacity=50;fillColor=#808080;" vertex="1" parent="1">
          <mxGeometry x="355" y="645" width="420" height="15" as="geometry" />
        </mxCell>
        <mxCell id="c9UWCFrcOHikl9ARo72L-42" value="" style="rounded=0;whiteSpace=wrap;html=1;opacity=50;fillColor=#808080;" vertex="1" parent="1">
          <mxGeometry x="755" y="660" width="35" height="15" as="geometry" />
        </mxCell>
        <mxCell id="c9UWCFrcOHikl9ARo72L-43" value="" style="rounded=0;whiteSpace=wrap;html=1;opacity=50;fillColor=#808080;" vertex="1" parent="1">
          <mxGeometry x="340" y="485" width="15" height="175" as="geometry" />
        </mxCell>
        <mxCell id="c9UWCFrcOHikl9ARo72L-44" value="" style="rounded=0;whiteSpace=wrap;html=1;opacity=50;fillColor=#808080;" vertex="1" parent="1">
          <mxGeometry x="775" y="485" width="15" height="175" as="geometry" />
        </mxCell>
        <mxCell id="c9UWCFrcOHikl9ARo72L-45" value="" style="rounded=0;whiteSpace=wrap;html=1;opacity=50;fillColor=#808080;" vertex="1" parent="1">
          <mxGeometry x="630" y="500" width="15" height="145" as="geometry" />
        </mxCell>
        <mxCell id="c9UWCFrcOHikl9ARo72L-47" value="" style="rounded=0;whiteSpace=wrap;html=1;opacity=50;fillColor=#CCCCCC;" vertex="1" parent="1">
          <mxGeometry x="340" y="545" width="450" height="55" as="geometry" />
        </mxCell>
        <mxCell id="c9UWCFrcOHikl9ARo72L-48" value="" style="rounded=0;whiteSpace=wrap;html=1;opacity=50;fillColor=#CCCCCC;" vertex="1" parent="1">
          <mxGeometry x="340" y="605" width="450" height="55" as="geometry" />
        </mxCell>
        <mxCell id="c9UWCFrcOHikl9ARo72L-49" value="" style="rounded=0;whiteSpace=wrap;html=1;opacity=50;fillColor=#CCCCCC;" vertex="1" parent="1">
          <mxGeometry x="325" y="250" width="480" height="55" as="geometry" />
        </mxCell>
        <mxCell id="c9UWCFrcOHikl9ARo72L-50" value="" style="rounded=0;whiteSpace=wrap;html=1;opacity=50;fillColor=#CCCCCC;" vertex="1" parent="1">
          <mxGeometry x="325" y="305" width="480" height="55" as="geometry" />
        </mxCell>
        <mxCell id="c9UWCFrcOHikl9ARo72L-51" value="" style="rounded=0;whiteSpace=wrap;html=1;opacity=50;fillColor=#CCCCCC;" vertex="1" parent="1">
          <mxGeometry x="325" y="360" width="480" height="55" as="geometry" />
        </mxCell>
        <mxCell id="c9UWCFrcOHikl9ARo72L-27" value="" style="rounded=0;whiteSpace=wrap;html=1;opacity=50;fillColor=#CCCCCC;" vertex="1" parent="1">
          <mxGeometry x="325" y="195" width="480" height="55" as="geometry" />
        </mxCell>
        <mxCell id="c9UWCFrcOHikl9ARo72L-38" value="" style="rounded=0;whiteSpace=wrap;html=1;opacity=50;fillColor=#CCCCCC;" vertex="1" parent="1">
          <mxGeometry x="340" y="485" width="450" height="55" as="geometry" />
        </mxCell>
        <mxCell id="c9UWCFrcOHikl9ARo72L-23" value="" style="rounded=0;whiteSpace=wrap;html=1;opacity=50;fillColor=#CCCCCC;" vertex="1" parent="1">
          <mxGeometry x="340" y="80" width="450" height="55" as="geometry" />
        </mxCell>
        <mxCell id="c9UWCFrcOHikl9ARo72L-52" value="" style="rounded=0;whiteSpace=wrap;html=1;opacity=50;fillColor=#CCCCCC;" vertex="1" parent="1">
          <mxGeometry x="20" y="720" width="480" height="55" as="geometry" />
        </mxCell>
        <mxCell id="c9UWCFrcOHikl9ARo72L-53" value="" style="rounded=0;whiteSpace=wrap;html=1;opacity=50;fillColor=#CCCCCC;" vertex="1" parent="1">
          <mxGeometry x="530" y="720" width="450" height="55" as="geometry" />
        </mxCell>
      </root>
    </mxGraphModel>
  </diagram>
</mxfile>
